<svg width="80" height="80" viewBox="0 0 80 80" fill="none" xmlns="http://www.w3.org/2000/svg">
<mask id="mask0_3002_940" style="mask-type:luminance" maskUnits="userSpaceOnUse" x="20" y="16" width="40" height="48">
<path d="M49.5091 21.4546H54.9091C55.4878 21.4546 56.0427 21.6845 56.4519 22.0936C56.861 22.5028 57.0909 23.0578 57.0909 23.6364V59.6364C57.0909 60.2151 56.861 60.77 56.4519 61.1792C56.0427 61.5884 55.4878 61.8182 54.9091 61.8182H24.3636C23.785 61.8182 23.23 61.5884 22.8209 61.1792C22.4117 60.77 22.1818 60.2151 22.1818 59.6364V23.6364C22.1818 23.0578 22.4117 22.5028 22.8209 22.0936C23.23 21.6845 23.785 21.4546 24.3636 21.4546H32V24.7273H47.2727V21.4546H49.5091Z" fill="white"/>
<path fill-rule="evenodd" clip-rule="evenodd" d="M21.2781 20.5508C22.0964 19.7324 23.2063 19.2727 24.3636 19.2727H32C33.205 19.2727 34.1818 20.2495 34.1818 21.4545V22.5454H45.0909V21.4545C45.0909 20.2495 46.0677 19.2727 47.2727 19.2727H54.9091C56.0664 19.2727 57.1763 19.7324 57.9947 20.5508C58.813 21.3691 59.2727 22.479 59.2727 23.6363V59.6363C59.2727 60.7936 58.813 61.9036 57.9947 62.7219C57.1763 63.5402 56.0664 64 54.9091 64H24.3636C23.2063 64 22.0964 63.5402 21.2781 62.7219C20.4597 61.9036 20 60.7936 20 59.6363V23.6363C20 22.479 20.4597 21.3691 21.2781 20.5508ZM49.4545 23.6363V24.7273C49.4545 25.9322 48.4777 26.9091 47.2727 26.9091H32C30.795 26.9091 29.8182 25.9322 29.8182 24.7273V23.6363H24.3636L24.3636 59.6363H54.9091V23.6363H49.4545Z" fill="white"/>
<path fill-rule="evenodd" clip-rule="evenodd" d="M29.8182 18.1818C29.8182 16.9768 30.795 16 32 16H47.2727C48.4777 16 49.4545 16.9768 49.4545 18.1818V24.7273C49.4545 25.9323 48.4777 26.9091 47.2727 26.9091H32C30.795 26.9091 29.8182 25.9323 29.8182 24.7273V18.1818ZM34.1818 20.3636V22.5455H45.0909V20.3636H34.1818Z" fill="white"/>
<path fill-rule="evenodd" clip-rule="evenodd" d="M44.4518 33.0025C45.3039 33.8545 45.304 35.2359 44.452 36.088L39.4488 41.0919H45.0953C45.9779 41.0919 46.7735 41.6236 47.1112 42.439C47.4488 43.2544 47.262 44.193 46.6377 44.8169L37.9061 53.5441C37.0538 54.396 35.6724 54.3956 34.8205 53.5434C33.9687 52.6911 33.969 51.3097 34.8213 50.4578L39.8261 45.4555H34.1819C33.2994 45.4555 32.5039 44.924 32.1662 44.1087C31.8285 43.2935 32.0151 42.355 32.639 41.731L41.3663 33.0027C42.2183 32.1506 43.5997 32.1505 44.4518 33.0025Z" fill="black"/>
</mask>
<g mask="url(#mask0_3002_940)">
<path d="M13.4545 13.8181H65.8182V66.1818H13.4545V13.8181Z" fill="#FF8100"/>
</g>
<circle cx="40" cy="40" r="40" fill="#FF8100" fill-opacity="0.2"/>
</svg>
