<svg width="100" height="100" viewBox="0 0 100 100" fill="none" xmlns="http://www.w3.org/2000/svg">
<circle cx="50" cy="50.237" r="29.6209" fill="#05C605"/>
<circle cx="50" cy="50" r="50" fill="#05C605" fill-opacity="0.1"/>
<path fill-rule="evenodd" clip-rule="evenodd" d="M65.6675 35.3357C66.8089 36.0821 67.1288 37.6106 66.3823 38.752L49.5972 64.4234C49.4016 64.7225 49.1434 64.9756 48.8405 65.1651C48.5375 65.3547 48.197 65.4762 47.8425 65.5212C47.488 65.5663 47.1279 65.5339 46.7871 65.4261C46.4464 65.3184 46.1331 65.138 45.8689 64.8973L35.0079 55.0237C34.5235 54.5832 34.2338 53.9684 34.2027 53.3144C34.1716 52.6604 34.4016 52.0208 34.8421 51.5363C35.2825 51.0519 35.8974 50.7622 36.5514 50.7311C37.2054 50.7 37.845 50.93 38.3294 51.3705L47.0498 59.297L62.2512 36.0506C62.6095 35.5028 63.1707 35.1198 63.8113 34.9858C64.452 34.8517 65.1196 34.9776 65.6675 35.3357Z" fill="white"/>
</svg>
